# xmcd
#
# Track frame offsets: 
#        150
#        20794
#        45600
#        65298
#        84893
#        102096
#        124659
#        164382
#        189676
#        211672
#        232591
#        253474
#        270273
#        290731
#        314184
#
# Disc length: 4456 seconds
#
# Revision: 8
# Processed by: cddbd v1.5.2PL0 Copyright (c) Steve Scherf et al.
# Submitted via: ExactAudioCopyFreeDBPlugin 1.0
#
DISCID=d111660f
DTITLE=Various Artist - Motown Remixed
DYEAR=2005
DGENRE=Rhythm and Blues
TTITLE0=The Jackson 5 - I Want You Back (Z-Trip Remix)
TTITLE1=Gladys Knight and The Pips - I Heard It Through the Grapevine (S
TTITLE1=ympathy for the Grapes Mix by the Randy Watson Experience)
TTITLE2=Marvin Gaye - Let's Get It On (Da Producers MPG Groove Mix)
TTITLE3=Stevie Wonder - Signed, Sealed, Delivered I'm Yours (DJ Smash 
TTITLE3=Essential Funk Mix)
TTITLE4=The Jackson 5 - ABC (Salaam Remi Krunk-A-Delic Party Mix)
TTITLE5=Rare Earth - I Just Want to Celebrate (Mocean Worker Remix)
TTITLE6=The Temptations - Papa Was a Rollin' Stone (DJ Jazzy Jeff and Pe
TTITLE6=te Kuzma Solefull Remix)
TTITLE7=Smokey Robinson - Quiet Storm (Groove Boutique Remix)
TTITLE8=Diana Ross and The Supremes - My World is Empty Without You (Tra
TTITLE8=nzition Mix)
TTITLE9=The Temptations - Just My Imagination (Running Away With Me) (
TTITLE9=Easy Mo Bee Remix)
TTITLE10=The Undisputed Truth - Smiling Faces Sometimes (Futureshock M
TTITLE10=ain Ingredient Mix)
TTITLE11=Smokey Robinson and the Miracles - The Tears of a Clown (Hotsna
TTITLE11=x Remix)
TTITLE12=Eddie Kendricks - Keep on Truckin' (DJ Spinna Remix)
TTITLE13=Edwin Starr - War (King Britt Remix)
TTITLE14=Rick James - Mary Jane (DJ Green Lantern Evil Genius Remix)
EXTD=YEAR: 2005
EXTT0=
EXTT1=
EXTT2=
EXTT3=
EXTT4=
EXTT5=
EXTT6=
EXTT7=
EXTT8=
EXTT9=
EXTT10=
EXTT11=
EXTT12=
EXTT13=
EXTT14=
PLAYORDER=
